<?xml version="1.0" encoding="iso-8859-1"?>
<!-- Uploaded to: SVG Repo, www.svgrepo.com, Generator: SVG Repo Mixer Tools -->
<svg version="1.1" id="Layer_1" xmlns="http://www.w3.org/2000/svg" xmlns:xlink="http://www.w3.org/1999/xlink" 
	 viewBox="0 0 512 512" xml:space="preserve">
<polygon style="fill:#AB2300;" points="252.669,426.097 166.251,511.471 135.804,512 237.713,411.321 252.668,396.546 
	339.622,310.643 369.535,310.643 267.625,411.321 "/>
<g>
	<path style="fill:#CD2A00;" d="M122.36,180.459v86.316H91.712V15.324C91.712,6.86,98.573,0,107.036,0l0,0
		c8.463,0,15.324,6.86,15.324,15.324v19.245"/>
	<path style="fill:#CD2A00;" d="M388.366,34.569V15.324C388.366,6.861,395.226,0,403.69,0l0,0c8.463,0,15.324,6.86,15.324,15.324
		v251.451h-30.647v-86.316"/>
	<path style="fill:#CD2A00;" d="M214.209,266.775h213.518c12.05,0,21.908,9.859,21.908,21.908l0,0
		c0,12.05-9.859,21.908-21.908,21.908H84.273c-12.05,0-21.908-9.859-21.908-21.908l0,0c0-12.05,9.859-21.908,21.908-21.908h85.009
		H214.209z"/>
</g>
<polygon style="fill:#781900;" points="369.535,512 339.087,511.471 135.804,310.643 165.716,310.643 "/>
<g>
	<rect x="91.712" y="239.843" style="fill:#AB2300;" width="30.647" height="26.934"/>
	<rect x="388.361" y="239.843" style="fill:#AB2300;" width="30.647" height="26.934"/>
	<rect x="91.712" y="162.016" style="fill:#AB2300;" width="30.647" height="26.934"/>
	<rect x="388.361" y="162.016" style="fill:#AB2300;" width="30.647" height="26.934"/>
</g>
<path style="fill:#FF7956;" d="M154.883,38.842c-32.405-3.135-56.537-8.02-63.17-14.653V170.08
	c25.161,25.161,302.14,25.161,327.301,0V24.189c-15.678,15.678-129.126,21.587-218.502,17.727L154.883,38.842z"/>
<polygon style="fill:#FFCD00;" points="263.31,69.195 277.901,95.824 307.736,101.473 286.92,123.578 290.767,153.699 
	263.31,140.732 235.853,153.699 239.701,123.578 218.884,101.473 248.719,95.824 "/>
</svg>